name GIL08_fast1.mot
datacolumns 153
datarows 4
range 0.33333334 0.35833335
endheader

                time	           pelvis_tx	           pelvis_ty	           pelvis_tz	         pelvis_tilt	         pelvis_list	     pelvis_rotation	       hip_flexion_r	     hip_adduction_r	      hip_rotation_r	        knee_angle_r	       ankle_angle_r	    subtalar_angle_r	         mtp_angle_r	       hip_flexion_l	     hip_adduction_l	      hip_rotation_l	        knee_angle_l	       ankle_angle_l	    subtalar_angle_l	         mtp_angle_l	    lumbar_extension	      lumbar_bending	     lumbar_rotation	     ground_force_vx	     ground_force_vy	     ground_force_vz	     ground_force_px	     ground_force_py	     ground_force_pz	     ground_force_vx	     ground_force_vy	     ground_force_vz	     ground_force_px	     ground_force_py	     ground_force_pz	     ground_torque_x	     ground_torque_y	     ground_torque_z	     ground_torque_x	     ground_torque_y	     ground_torque_z	    ground_marker_px	    ground_marker_py	    ground_marker_pz	    ground_marker_px	    ground_marker_py	    ground_marker_pz	    ground_marker_px	    ground_marker_py	    ground_marker_pz	    ground_marker_px	    ground_marker_py	    ground_marker_pz	    ground_marker_px	    ground_marker_py	    ground_marker_pz	    ground_marker_px	    ground_marker_py	    ground_marker_pz	    ground_marker_px	    ground_marker_py	    ground_marker_pz	    ground_marker_px	    ground_marker_py	    ground_marker_pz	    ground_marker_px	    ground_marker_py	    ground_marker_pz	    ground_marker_px	    ground_marker_py	    ground_marker_pz	    ground_marker_px	    ground_marker_py	    ground_marker_pz	    ground_marker_px	    ground_marker_py	    ground_marker_pz	    ground_marker_px	    ground_marker_py	    ground_marker_pz	    ground_marker_px	    ground_marker_py	    ground_marker_pz	    ground_marker_px	    ground_marker_py	    ground_marker_pz	    ground_marker_px	    ground_marker_py	    ground_marker_pz	    ground_marker_px	    ground_marker_py	    ground_marker_pz	    ground_marker_px	    ground_marker_py	    ground_marker_pz	    ground_marker_px	    ground_marker_py	    ground_marker_pz	    ground_marker_px	    ground_marker_py	    ground_marker_pz	    ground_marker_px	    ground_marker_py	    ground_marker_pz	    ground_marker_px	    ground_marker_py	    ground_marker_pz	    ground_marker_px	    ground_marker_py	    ground_marker_pz	    ground_marker_px	    ground_marker_py	    ground_marker_pz	    ground_marker_px	    ground_marker_py	    ground_marker_pz	    ground_marker_px	    ground_marker_py	    ground_marker_pz	    ground_marker_px	    ground_marker_py	    ground_marker_pz	    ground_marker_px	    ground_marker_py	    ground_marker_pz	    ground_marker_px	    ground_marker_py	    ground_marker_pz	    ground_marker_px	    ground_marker_py	    ground_marker_pz	    ground_marker_px	    ground_marker_py	    ground_marker_pz	    ground_marker_px	    ground_marker_py	    ground_marker_pz	    ground_marker_px	    ground_marker_py	    ground_marker_pz	    ground_marker_px	    ground_marker_py	    ground_marker_pz	    ground_marker_px	    ground_marker_py	    ground_marker_pz	    ground_marker_px	    ground_marker_py	    ground_marker_pz	    ground_marker_px	    ground_marker_py	    ground_marker_pz	
          0.33333334	          0.88671392	          0.97374135	         -0.26207107	          3.37878323	          1.16148019	         -3.66929388	         21.76705170	         -0.89519507	          4.19855452	        -45.66518021	          8.62961674	          0.00000000	          0.00000000	         -7.49920940	          0.54198509	          5.71309566	        -13.76471901	         15.71961784	          0.00000000	          0.00000000	        -22.89093590	         -2.81104231	         -0.26025718	          0.00000000	          0.00000000	          0.00000000	          1.31122144	          0.00000000	         -0.18434729	          2.36546946	        494.72740645	         22.07928976	          0.77359967	          0.00000000	         -0.31767688	          0.00000000	          0.00000000	          0.00000000	          0.00000000	         -0.57580621	          0.00000000	          0.80769974	          0.88750798	         -0.26855108	          0.80277318	          0.87795055	         -0.21524321	          0.80983949	          0.87905961	         -0.32157284	          0.98190498	          0.49408615	         -0.20070556	          0.78003085	          0.46967945	         -0.32393229	          0.83568770	          0.10603981	         -0.19871253	          0.64741230	          0.07100350	         -0.31312287	          0.88671392	          0.97374135	         -0.26207107	          0.87989545	          0.97267121	         -0.15947048	          0.89353240	          0.97481149	         -0.36467165	          0.68736041	          1.00101769	         -0.22969189	          0.69035769	          1.00688028	         -0.31492186	          0.98151320	          0.49615526	         -0.14124283	          0.78981060	          0.46930560	         -0.38262185	          0.98807532	          0.50430161	         -0.26256391	          0.75798500	          0.47521669	         -0.27960750	          0.82831168	          0.10900996	         -0.16155377	          0.64745766	          0.06991784	         -0.35260791	          0.83932173	          0.11054888	         -0.23090704	          0.65545440	          0.07819187	         -0.28333694	          0.76835591	          1.45920956	         -0.27940446	          0.85803556	          1.38870430	         -0.18980870	          0.86662018	          1.38280821	         -0.34703159	          0.85028988	          1.38731432	         -0.27310655	          0.88147074	          1.18473911	         -0.27056688	          0.96096593	          0.59033275	         -0.05617763	          0.93745357	          0.58126146	         -0.32284561	          0.96870941	          0.65968353	         -0.12183874	          0.87745839	          0.64727098	         -0.36893877	          1.00050378	          0.58578956	         -0.14654623	          0.85367686	          0.56203246	         -0.36568263	          0.86117476	          0.17930451	         -0.09362379	          0.77959299	          0.14818975	         -0.30299476	          0.87046349	          0.23630303	         -0.15601912	          0.73044008	          0.21332733	         -0.32126758	          0.94403934	          0.05879384	         -0.18902723	          0.77310735	          0.04106717	         -0.31948844	
          0.34166670	          0.89947462	          0.97247601	         -0.26244557	          3.35183620	          0.72219563	         -3.01783538	         22.46230316	         -0.68554425	          4.35478544	        -43.42941284	          8.70447254	          0.00000000	          0.00000000	         -8.58933258	          0.02168376	          6.33870602	        -13.23368359	         15.99758434	          0.00000000	          0.00000000	        -22.98427773	         -2.17214370	         -0.71476442	          0.00000000	          0.00000000	          0.00000000	          1.31742773	          0.00000000	         -0.18441457	          6.00723236	        505.60142721	         21.39510344	          0.77687695	          0.00000000	         -0.31765100	          0.00000000	          0.00000000	          0.00000000	          0.00000000	         -0.72293927	          0.00000000	          0.82016909	          0.88629299	         -0.26837879	          0.81609690	          0.87698871	         -0.21401936	          0.82184541	          0.87747121	         -0.32043308	          1.00004220	          0.49533013	         -0.20073403	          0.78435081	          0.46889189	         -0.32415557	          0.87381947	          0.10024509	         -0.19740091	          0.64778733	          0.07161975	         -0.31310034	          0.89947462	          0.97247601	         -0.26244557	          0.89392513	          0.97201025	         -0.15971525	          0.90502411	          0.97294182	         -0.36517587	          0.70023382	          0.99986976	         -0.22843985	          0.70235723	          1.00558794	         -0.31379756	          1.00059533	          0.49766621	         -0.14128248	          0.79407072	          0.46853471	         -0.38285521	          1.00445139	          0.50523669	         -0.26280868	          0.76535404	          0.47277144	         -0.27828288	          0.86630642	          0.10295881	         -0.16025001	          0.64777917	          0.07052378	         -0.35258514	          0.87699592	          0.10498814	         -0.22965190	          0.65585804	          0.07879325	         -0.28334796	          0.78152418	          1.45808804	         -0.27913523	          0.87124062	          1.38728106	         -0.18977958	          0.87962478	          1.38170636	         -0.34707502	          0.86339062	          1.38607585	         -0.27309534	          0.89433587	          1.18345916	         -0.27102378	          0.98022777	          0.59211791	         -0.05640012	          0.94348425	          0.57838279	         -0.32282943	          0.98544723	          0.66114306	         -0.12279072	          0.88213933	          0.64569634	         -0.36907524	          1.01786935	          0.58785701	         -0.14758922	          0.85939485	          0.56056052	         -0.36541682	          0.89554149	          0.17506292	         -0.09254366	          0.78069419	          0.14753769	         -0.30314401	          0.90180898	          0.23227379	         -0.15505826	          0.73216134	          0.21306877	         -0.32138494	          0.98446167	          0.05877749	         -0.18802842	          0.77317542	          0.04107265	         -0.31956407	
          0.35000002	          0.91234112	          0.97108251	         -0.26290500	          3.34024334	          0.30951405	         -2.35195160	         23.06344223	         -0.56922674	          4.48645878	        -41.05884171	          8.61768055	          0.00000000	          0.00000000	         -9.70019150	         -0.47679362	          7.02375078	        -12.67659855	         16.21829605	          0.00000000	          0.00000000	        -23.12083054	         -1.54935169	         -1.12944639	          0.00000000	          0.00000000	          0.00000000	          1.32312512	          0.00000000	         -0.18441055	         10.41013428	        517.97923958	         20.57690792	          0.77937585	          0.00000000	         -0.31759918	          0.00000000	          0.00000000	          0.00000000	          0.00000000	         -0.90811499	          0.00000000	          0.83278054	          0.88496876	         -0.26812544	          0.82957274	          0.87586761	         -0.21292211	          0.83398288	          0.87577778	         -0.31940073	          1.01770425	          0.49615198	         -0.20059431	          0.78867918	          0.46817562	         -0.32434919	          0.91211540	          0.09500281	         -0.19597964	          0.64822137	          0.07235664	         -0.31303179	          0.91234112	          0.97108251	         -0.26290500	          0.90808046	          0.97116929	         -0.16003500	          0.91660178	          0.97099572	         -0.36577502	          0.71322525	          0.99854636	         -0.22704382	          0.71444696	          1.00415933	         -0.31247747	          1.01915336	          0.49879918	         -0.14117089	          0.79840195	          0.46780759	         -0.38304824	          1.02042186	          0.50568455	         -0.26280198	          0.77184272	          0.47060347	         -0.27772307	          0.90448600	          0.09743830	         -0.15883316	          0.64812636	          0.07126141	         -0.35251650	          0.91478372	          0.09985707	         -0.22822328	          0.65638244	          0.07945697	         -0.28328931	          0.79484546	          1.45684791	         -0.27885163	          0.88460869	          1.38564932	         -0.18976130	          0.89264059	          1.38046825	         -0.34702867	          0.87657565	          1.38467562	         -0.27303293	          0.90714276	          1.18199646	         -0.27155218	          0.99899483	          0.59366053	         -0.05660049	          0.94957250	          0.57560068	         -0.32266203	          1.00164652	          0.66240704	         -0.12365464	          0.88767886	          0.64392871	         -0.36854774	          1.03479362	          0.58945394	         -0.14853938	          0.86523283	          0.55909902	         -0.36508787	          0.92996496	          0.17115015	         -0.09135997	          0.78182632	          0.14697622	         -0.30334100	          0.93311864	          0.22840613	         -0.15395872	          0.73390818	          0.21292220	         -0.32145625	          1.02468991	          0.05917516	         -0.18710749	          0.77325749	          0.04108738	         -0.31966004	
          0.35833335	          0.92531013	          0.96957964	         -0.26345003	          3.34093380	         -0.05612140	         -1.68774056	         23.58538818	         -0.55498528	          4.54834700	        -38.59086227	          8.35832214	          0.00000000	          0.00000000	        -10.82830811	         -0.92929935	          7.72548485	        -12.09882736	         16.37887192	          0.00000000	          0.00000000	        -23.23451042	         -0.98927385	         -1.49957108	          0.00000000	          0.00000000	          0.00000000	          1.32820349	          0.00000000	         -0.18432234	         15.78195897	        531.25412661	         19.75588162	          0.78119482	          0.00000000	         -0.31752985	          0.00000000	          0.00000000	          0.00000000	          0.00000000	         -1.11512964	          0.00000000	          0.84562194	          0.88363600	         -0.26777852	          0.84317523	          0.87459308	         -0.21200898	          0.84626245	          0.87401736	         -0.31853265	          1.03497934	          0.49656150	         -0.20029771	          0.79303688	          0.46756539	         -0.32453054	          0.95045900	          0.09038207	         -0.19449714	          0.64871258	          0.07323369	         -0.31291559	          0.92531013	          0.96957964	         -0.26345003	          0.92232442	          0.97013640	         -0.16043082	          0.92829579	          0.96902287	         -0.36646926	          0.72635204	          0.99707401	         -0.22549453	          0.72665256	          1.00262880	         -0.31095096	          1.03720641	          0.49953112	         -0.14091361	          0.80279607	          0.46715352	         -0.38322330	          1.03627431	          0.50577557	         -0.26277465	          0.77837676	          0.46736404	         -0.27733290	          0.94275546	          0.09251560	         -0.15734738	          0.64849859	          0.07214901	         -0.35240012	          0.95256382	          0.09524034	         -0.22669204	          0.65703356	          0.08021981	         -0.28318405	          0.80815417	          1.45548582	         -0.27858311	          0.89816624	          1.38384449	         -0.18978240	          0.90570110	          1.37905908	         -0.34696284	          0.88987303	          1.38309968	         -0.27296934	          0.92012185	          1.18036914	         -0.27210295	          1.01715708	          0.59489709	         -0.05674695	          0.95574385	          0.57291842	         -0.32244325	          1.01761484	          0.66327053	         -0.12441400	          0.89253998	          0.64188915	         -0.36725059	          1.05143666	          0.59053594	         -0.14939643	          0.87061781	          0.55757087	         -0.36459187	          0.96442312	          0.16760468	         -0.09009916	          0.78300220	          0.14652303	         -0.30358317	          0.96439672	          0.22471525	         -0.15273002	          0.73567450	          0.21290988	         -0.32150131	          1.06461358	          0.05997055	         -0.18632765	          0.77335209	          0.04111869	         -0.31977892	
